<svg xmlns="http://www.w3.org/2000/svg" viewBox="0 0 1200 280" width="1200" height="280" preserveAspectRatio="xMidYMid slice">
  <defs>
    <linearGradient id="bg" x1="0%" y1="0%" x2="100%" y2="100%">
      <stop offset="0%" stop-color="#0c4a6e"/>
      <stop offset="50%" stop-color="#0369a1"/>
      <stop offset="100%" stop-color="#0891b2"/>
    </linearGradient>
    <linearGradient id="sun" x1="0%" y1="0%" x2="0%" y2="100%">
      <stop offset="0%" stop-color="#fbbf24"/>
      <stop offset="100%" stop-color="#f97316"/>
    </linearGradient>
    <linearGradient id="mountain" x1="0%" y1="0%" x2="0%" y2="100%">
      <stop offset="0%" stop-color="#1e3a8a" stop-opacity="0.85"/>
      <stop offset="100%" stop-color="#0c4a6e" stop-opacity="0.4"/>
    </linearGradient>
    <linearGradient id="mountain2" x1="0%" y1="0%" x2="0%" y2="100%">
      <stop offset="0%" stop-color="#1e40af" stop-opacity="0.7"/>
      <stop offset="100%" stop-color="#0c4a6e" stop-opacity="0.3"/>
    </linearGradient>
  </defs>

  <rect width="1200" height="280" fill="url(#bg)"/>

  <circle cx="120" cy="40" r="1.5" fill="#fff" opacity="0.6"/>
  <circle cx="280" cy="30" r="1" fill="#fff" opacity="0.4"/>
  <circle cx="450" cy="50" r="1.5" fill="#fff" opacity="0.5"/>
  <circle cx="680" cy="35" r="1" fill="#fff" opacity="0.6"/>
  <circle cx="920" cy="45" r="1.5" fill="#fff" opacity="0.4"/>
  <circle cx="1080" cy="30" r="1" fill="#fff" opacity="0.5"/>

  <circle cx="950" cy="90" r="40" fill="url(#sun)" opacity="0.9"/>

  <path d="M 0 200 L 100 130 L 180 160 L 280 110 L 380 150 L 480 100 L 580 140 L 700 90 L 820 130 L 920 100 L 1050 140 L 1200 110 L 1200 280 L 0 280 Z" fill="url(#mountain2)"/>

  <path d="M 0 240 L 80 180 L 160 210 L 280 160 L 400 200 L 520 170 L 640 200 L 780 160 L 900 190 L 1020 170 L 1200 200 L 1200 280 L 0 280 Z" fill="url(#mountain)"/>

  <g opacity="0.5" fill="#0c4a6e">
    <rect x="220" y="195" width="4" height="20"/>
    <rect x="217" y="190" width="10" height="6"/>
    <rect x="214" y="186" width="16" height="4"/>
    <rect x="218" y="180" width="8" height="6"/>
    <polygon points="222,178 218,184 226,184"/>
    <rect x="300" y="200" width="20" height="20"/>
    <rect x="325" y="190" width="18" height="30"/>
    <rect x="348" y="200" width="14" height="20"/>
    <rect x="370" y="195" width="22" height="25"/>
    <rect x="500" y="200" width="18" height="20"/>
    <rect x="525" y="185" width="20" height="35"/>
    <rect x="550" y="195" width="16" height="25"/>
    <rect x="800" y="195" width="24" height="25"/>
    <rect x="828" y="185" width="18" height="35"/>
    <rect x="850" y="200" width="14" height="20"/>
  </g>

  <g opacity="0.7">
    <path d="M 100 80 Q 200 60 350 90 T 600 85" stroke="#fff" stroke-width="1.5" fill="none" stroke-dasharray="4,4" opacity="0.4"/>
    <g transform="translate(580, 82) rotate(20)">
      <path d="M -10 0 L 10 0 L 8 -2 L 14 -2 L 10 0 L 8 2 L 14 2 L 10 0 Z M 0 0 L 2 -4 L 4 -4 L 3 0 L 4 4 L 2 4 Z" fill="#fff"/>
    </g>
  </g>

  <rect x="380" y="50" width="440" height="180" rx="14" fill="#fff" opacity="0.96"/>
  <rect x="380" y="50" width="440" height="180" rx="14" fill="none" stroke="#fff" stroke-opacity="0.4" stroke-width="1"/>

  <rect x="402" y="74" width="100" height="22" rx="11" fill="#fef3c7"/>
  <text x="452" y="89" font-family="-apple-system, BlinkMacSystemFont, 'Segoe UI', sans-serif" font-size="11" font-weight="700" fill="#92400e" text-anchor="middle" letter-spacing="0.8">SPONSORED</text>

  <text x="402" y="135" font-family="-apple-system, BlinkMacSystemFont, 'Segoe UI', sans-serif" font-size="28" font-weight="800" fill="#0c4a6e">Plan your China trip</text>
  <text x="402" y="168" font-family="-apple-system, BlinkMacSystemFont, 'Segoe UI', sans-serif" font-size="20" font-weight="600" fill="#0369a1">Travel essentials, made simple</text>

  <text x="402" y="200" font-family="-apple-system, BlinkMacSystemFont, 'Segoe UI', sans-serif" font-size="14" fill="#475569">Curated guides, tools, and tips for foreign visitors</text>

  <g transform="translate(402, 215)">
    <rect x="0" y="0" width="90" height="14" rx="3" fill="none" stroke="#94a3b8" stroke-width="1"/>
    <text x="45" y="10" font-family="-apple-system, BlinkMacSystemFont, sans-serif" font-size="9" font-weight="600" fill="#64748b" text-anchor="middle" letter-spacing="0.5">ADVERTISEMENT</text>
  </g>

  <g transform="translate(900, 140)">
    <circle cx="0" cy="0" r="70" fill="#fff" opacity="0.1"/>
    <g transform="rotate(-15)">
      <path d="M -30 10 L 30 -15 L 20 5 L 25 25 L 5 15 Z" fill="#fff"/>
      <path d="M -30 10 L 20 5 L 5 15 Z" fill="#cbd5e1"/>
    </g>
  </g>
</svg>
